# xmcd
#
# Track frame offsets: 
#        150
#        42663
#        91456
#        141669
#        195552
#        243792
#        277262
#
# Disc length: 4162 seconds
#
# Revision: 1
# Processed by: cddbd v1.5.2PL0 Copyright (c) Steve Scherf et al.
# Submitted via: ExactAudioCopy v1.3
#
DISCID=6c104007
DTITLE=Don DeLillo - Falling Man
DYEAR=2007
DGENRE=Audiobook
TTITLE0=Don DeLillo - Falling Man
TTITLE1=Don DeLillo - Falling Man
TTITLE2=Don DeLillo - Falling Man
TTITLE3=Don DeLillo - Falling Man
TTITLE4=Don DeLillo - Falling Man
TTITLE5=Don DeLillo - Falling Man
TTITLE6=Don DeLillo - Falling Man
EXTD=YEAR: 2007
EXTT0=
EXTT1=
EXTT2=
EXTT3=
EXTT4=
EXTT5=
EXTT6=
PLAYORDER=
